<svg width="20" height="22" viewBox="0 0 20 22" fill="none" xmlns="http://www.w3.org/2000/svg">
<g clip-path="url(#clip0_1_92)">
<path d="M10.1008 20.5111C11.7008 20.0111 16.7008 17.5111 16.7008 17.5111C18.8008 16.4111 18.7008 14.5111 18.7008 14.1111V3.31107C18.7008 2.71107 18.3008 2.31107 17.8008 2.11107C14.2008 0.911075 10.0008 1.01107 10.0008 1.01107C10.0008 1.01107 6.00076 0.811075 2.40076 2.11107C1.90076 2.31107 1.50076 2.81107 1.50076 3.31107V14.1111C1.50076 14.5111 1.40076 16.4111 3.50076 17.5111C3.50076 17.6111 8.50076 20.0111 10.1008 20.5111Z" stroke="#AA7549" stroke-width="1.2" stroke-miterlimit="10" stroke-linecap="round" stroke-linejoin="round"/>
<path d="M10.101 13.511C12.0892 13.511 13.701 11.8993 13.701 9.91104C13.701 7.92281 12.0892 6.31104 10.101 6.31104C8.11275 6.31104 6.50098 7.92281 6.50098 9.91104C6.50098 11.8993 8.11275 13.511 10.101 13.511Z" fill="#AA7549"/>
</g>
<defs>
<clipPath id="clip0_1_92">
<rect width="20" height="22" fill="white"/>
</clipPath>
</defs>
</svg>
