<svg width="16" height="23" viewBox="0 0 16 23" fill="none" xmlns="http://www.w3.org/2000/svg">
<g clip-path="url(#clip0_1_96)">
<path fill-rule="evenodd" clip-rule="evenodd" d="M5.01333 4.95065C5.01333 3.38746 6.32806 2.08025 8 2.08025C9.67193 2.08025 10.9867 3.38746 10.9867 4.95065V7.24296C10.0639 6.87136 9.05581 6.66683 8 6.66683C6.94419 6.66683 5.93614 6.87137 5.01333 7.24297V4.95065ZM3.52 8.03793V4.95065C3.52 2.51854 5.5482 0.586914 8 0.586914C10.4518 0.586914 12.48 2.51854 12.48 4.95065V8.03792C14.604 9.4762 16 11.9085 16 14.6668C16 19.0851 12.4183 22.6668 8 22.6668C3.58172 22.6668 0 19.0851 0 14.6668C0 11.9085 1.39599 9.4762 3.52 8.03793ZM14.5067 14.6668C14.5067 18.2604 11.5935 21.1735 8 21.1735C4.40647 21.1735 1.49333 18.2604 1.49333 14.6668C1.49333 11.0733 4.40647 8.16017 8 8.16017C11.5935 8.16017 14.5067 11.0733 14.5067 14.6668ZM8.53333 15.109C9.15476 14.8894 9.59999 14.2967 9.59999 13.6001C9.59999 12.7164 8.88365 12.0001 7.99999 12.0001C7.11634 12.0001 6.39999 12.7164 6.39999 13.6001C6.39999 14.2967 6.84522 14.8894 7.46666 15.109V17.3334H8.53333V15.109Z" fill="#577975"/>
</g>
<defs>
<clipPath id="clip0_1_96">
<rect width="16" height="23" fill="white"/>
</clipPath>
</defs>
</svg>
