<svg width="162" height="54" viewBox="0 0 162 54" fill="none" xmlns="http://www.w3.org/2000/svg">
<g clip-path="url(#clip0_1_11)">
<path d="M149.099 0.0001755H12.908C12.4115 0.0001755 11.921 0.0001755 11.4259 0.0028755C11.0115 0.0055755 10.6003 0.013419 10.1819 0.0200205C9.2728 0.0306879 8.36589 0.110438 7.46899 0.258579C6.57336 0.409945 5.70578 0.695312 4.8956 1.10503C4.08641 1.51821 3.34704 2.0551 2.70429 2.69622C2.05817 3.33554 1.51958 4.0745 1.10923 4.88469C0.697744 5.69327 0.412419 6.55974 0.263109 7.45417C0.112379 8.34748 0.0312704 9.25108 0.0205099 10.1569C0.00794675 10.5708 0.00662003 10.9861 0 11.4V42.6043C0.00662003 43.0235 0.00794675 43.4295 0.0205099 43.8489C0.0312737 44.7546 0.112383 45.6582 0.263109 46.5514C0.412007 47.4464 0.697348 48.3133 1.10923 49.1222C1.51939 49.9298 2.05806 50.6658 2.70429 51.3015C3.3446 51.9455 4.08445 52.4827 4.8956 52.8928C5.70577 53.3036 6.57326 53.5907 7.46899 53.7444C8.36604 53.8913 9.27286 53.9711 10.1819 53.983C10.6003 53.9922 11.0115 53.9975 11.4259 53.9975C11.921 54.0002 12.4115 54.0002 12.908 54.0002H149.099C149.586 54.0002 150.08 54.0002 150.567 53.9975C150.979 53.9975 151.402 53.9922 151.815 53.983C152.722 53.9717 153.627 53.8919 154.522 53.7444C155.421 53.5896 156.292 53.3026 157.106 52.8928C157.916 52.4825 158.655 51.9453 159.295 51.3015C159.94 50.6633 160.48 49.9278 160.895 49.1222C161.304 48.3127 161.586 47.4459 161.733 46.5514C161.884 45.658 161.968 44.7547 161.984 43.8489C161.989 43.4295 161.989 43.0235 161.989 42.6043C162 42.1138 162 41.6261 162 41.1277V12.874C162 12.3796 162 11.8891 161.989 11.4C161.989 10.9861 161.989 10.5708 161.984 10.1568C161.968 9.25095 161.884 8.34754 161.733 7.45412C161.586 6.56021 161.303 5.6938 160.895 4.88464C160.059 3.26069 158.734 1.93881 157.106 1.10491C156.292 0.696191 155.421 0.4109 154.522 0.258458C153.627 0.109664 152.722 0.029886 151.815 0.0198315C151.402 0.0132435 150.979 0.0053325 150.567 0.0027C150.08 0 149.586 0 149.099 0V0.0001755Z" fill="#A6A6A6"/>
<path d="M11.4325 52.8188C11.0201 52.8188 10.6175 52.8135 10.2083 52.8043C9.36054 52.7933 8.51475 52.7197 7.67788 52.5841C6.89754 52.4501 6.14161 52.2008 5.435 51.8445C4.73488 51.4911 4.09631 51.0277 3.54376 50.4721C2.98321 49.923 2.51653 49.2862 2.1622 48.5868C1.80398 47.8829 1.55606 47.1284 1.4271 46.3496C1.28782 45.5127 1.21247 44.6665 1.20169 43.8183C1.19311 43.5336 1.18187 42.5856 1.18187 42.5856V11.3999C1.18187 11.3999 1.19384 10.4665 1.20176 10.1923C1.21208 9.34538 1.28699 8.50051 1.42585 7.66496C1.55505 6.88401 1.80316 6.12734 2.16158 5.42112C2.5146 4.72225 2.97869 4.08494 3.53587 3.53389C4.09241 2.97761 4.73303 2.51184 5.43434 2.15356C6.13932 1.79835 6.89383 1.55081 7.67259 1.41924C8.51221 1.2823 9.36093 1.20827 10.2116 1.19776L11.4332 1.18127H150.56L151.796 1.19842C152.639 1.20841 153.48 1.28178 154.312 1.41792C155.099 1.55114 155.861 1.80041 156.574 2.15751C157.979 2.87956 159.122 4.02189 159.844 5.42442C160.196 6.12575 160.441 6.87626 160.568 7.65046C160.709 8.49286 160.787 9.34437 160.804 10.1982C160.807 10.5805 160.807 10.9912 160.807 11.3999C160.818 11.9061 160.818 12.388 160.818 12.8738V41.1275C160.818 41.618 160.818 42.0965 160.807 42.579C160.807 43.018 160.807 43.4202 160.802 43.8341C160.786 44.6727 160.709 45.509 160.571 46.3363C160.444 47.1208 160.198 47.8812 159.84 48.5908C159.483 49.2826 159.019 49.9139 158.465 50.4615C157.912 51.0201 157.272 51.4863 156.57 51.8419C155.859 52.201 155.098 52.4512 154.312 52.5841C153.475 52.7204 152.63 52.794 151.782 52.8043C151.385 52.8135 150.97 52.8188 150.567 52.8188L149.099 52.8215L11.4325 52.8188Z" fill="black"/>
<path d="M33.5319 27.4059C33.5464 26.2791 33.8466 25.1743 34.4044 24.1942C34.9621 23.2142 35.7595 22.3908 36.7221 21.8006C36.1106 20.9296 35.3038 20.2129 34.3659 19.7072C33.4279 19.2016 32.3847 18.921 31.319 18.8877C29.0456 18.6498 26.8417 20.2443 25.6833 20.2443C24.5024 20.2443 22.7188 18.9114 20.7981 18.9508C19.5558 18.9908 18.345 19.351 17.2838 19.9964C16.2226 20.6418 15.3471 21.5503 14.7427 22.6334C12.1245 27.1538 14.0774 33.7972 16.5855 37.4511C17.8403 39.2403 19.3069 41.2389 21.2258 41.1681C23.1036 41.0904 23.8049 39.974 26.0715 39.974C28.3172 39.974 28.9751 41.1681 30.933 41.123C32.948 41.0904 34.2175 39.3258 35.4283 37.5197C36.3299 36.2448 37.0236 34.8357 37.4839 33.3448C36.3133 32.851 35.3143 32.0246 34.6115 30.9685C33.9087 29.9124 33.5332 28.6734 33.5319 27.4059Z" fill="white"/>
<path d="M29.8338 16.4847C30.9324 15.1695 31.4737 13.4791 31.3426 11.7723C29.6642 11.9481 28.1137 12.7481 27.0002 14.0128C26.4558 14.6307 26.0389 15.3494 25.7732 16.1281C25.5075 16.9067 25.3983 17.7299 25.4519 18.5507C26.2914 18.5593 27.122 18.3779 27.881 18.02C28.64 17.6621 29.3077 17.1372 29.8338 16.4847Z" fill="white"/>
<path d="M57.2684 36.6385H50.8604L49.3215 41.1697H46.6073L52.6769 24.4054H55.4968L61.5664 41.1697H58.8059L57.2684 36.6385ZM51.524 34.5476H56.6034L54.0995 27.1938H54.0294L51.524 34.5476Z" fill="white"/>
<path d="M74.6746 35.0591C74.6746 38.8573 72.636 41.2975 69.5596 41.2975C68.7803 41.3382 68.0052 41.1592 67.3232 40.781C66.6412 40.4028 66.0797 39.8407 65.7031 39.1591H65.6449V45.2131H63.129V28.9472H65.5643V30.9801H65.6106C66.0045 30.3017 66.5754 29.7426 67.2626 29.3621C67.9499 28.9816 68.7277 28.794 69.5133 28.8193C72.6241 28.8193 74.6746 31.2714 74.6746 35.0591ZM72.0887 35.0591C72.0887 32.5845 70.8063 30.9577 68.8496 30.9577C66.9273 30.9577 65.6344 32.6188 65.6344 35.0591C65.6344 37.5218 66.9273 39.171 68.8496 39.171C70.8063 39.171 72.0887 37.5561 72.0887 35.0591Z" fill="white"/>
<path d="M88.1649 35.0591C88.1649 38.8573 86.1263 41.2975 83.0499 41.2975C82.2706 41.3382 81.4955 41.1592 80.8135 40.781C80.1314 40.4028 79.57 39.8407 79.1934 39.1591H79.1352V45.213H76.6193V28.9471H79.0545V30.9801H79.1008C79.4947 30.3017 80.0656 29.7426 80.7529 29.3621C81.4401 28.9816 82.2179 28.794 83.0036 28.8193C86.1144 28.8193 88.1649 31.2714 88.1649 35.0591ZM85.579 35.0591C85.579 32.5845 84.2966 30.9576 82.3399 30.9576C80.4176 30.9576 79.1247 32.6188 79.1247 35.0591C79.1247 37.5218 80.4176 39.171 82.3399 39.171C84.2966 39.171 85.579 37.556 85.579 35.0591H85.579Z" fill="white"/>
<path d="M97.0809 36.4987C97.2673 38.1612 98.8869 39.2527 101.1 39.2527C103.221 39.2527 104.746 38.1611 104.746 36.6621C104.746 35.3609 103.826 34.5818 101.647 34.0478L99.4686 33.5244C96.3816 32.7809 94.9484 31.3412 94.9484 29.0051C94.9484 26.1126 97.4762 24.1259 101.066 24.1259C104.618 24.1259 107.053 26.1126 107.135 29.0051H104.595C104.443 27.3321 103.057 26.3222 101.03 26.3222C99.0032 26.3222 97.6163 27.344 97.6163 28.8311C97.6163 30.0163 98.5021 30.7137 100.669 31.2476L102.521 31.7011C105.97 32.5145 107.404 33.8962 107.404 36.3483C107.404 39.4847 104.898 41.4491 100.914 41.4491C97.1853 41.4491 94.6681 39.5308 94.5055 36.4986L97.0809 36.4987Z" fill="white"/>
<path d="M112.833 26.0547V28.9472H115.164V30.9339H112.833V37.6721C112.833 38.7188 113.3 39.2066 114.325 39.2066C114.601 39.2018 114.877 39.1825 115.152 39.1486V41.1235C114.691 41.2093 114.223 41.2482 113.755 41.2395C111.273 41.2395 110.305 40.3101 110.305 37.9397V30.9339H108.523V28.9472H110.305V26.0547H112.833Z" fill="white"/>
<path d="M116.514 35.0591C116.514 31.2134 118.785 28.7969 122.327 28.7969C125.881 28.7969 128.141 31.2134 128.141 35.0591C128.141 38.9153 125.893 41.3213 122.327 41.3213C118.763 41.3213 116.514 38.9153 116.514 35.0591ZM125.578 35.0591C125.578 32.421 124.366 30.8641 122.327 30.8641C120.288 30.8641 119.077 32.4329 119.077 35.0591C119.077 37.7077 120.288 39.2528 122.327 39.2528C124.366 39.2528 125.578 37.7077 125.578 35.0591H125.578Z" fill="white"/>
<path d="M130.216 28.9472H132.615V31.0275H132.673C132.836 30.3778 133.218 29.8036 133.754 29.4014C134.291 28.9993 134.951 28.7937 135.622 28.8193C135.912 28.8183 136.201 28.8497 136.484 28.9129V31.2596C136.118 31.148 135.736 31.0968 135.353 31.1079C134.988 31.0932 134.623 31.1574 134.285 31.2963C133.947 31.4352 133.643 31.6455 133.394 31.9126C133.145 32.1798 132.957 32.4975 132.842 32.844C132.728 33.1905 132.69 33.5576 132.732 33.92V41.1697H130.216L130.216 28.9472Z" fill="white"/>
<path d="M148.083 37.5798C147.745 39.7986 145.578 41.3213 142.806 41.3213C139.24 41.3213 137.027 38.939 137.027 35.1171C137.027 31.2833 139.252 28.7969 142.7 28.7969C146.091 28.7969 148.224 31.1198 148.224 34.8257V35.6853H139.567V35.8369C139.527 36.2867 139.583 36.7399 139.732 37.1663C139.881 37.5926 140.12 37.9825 140.432 38.3099C140.744 38.6374 141.122 38.8949 141.541 39.0654C141.96 39.2359 142.411 39.3155 142.864 39.2989C143.458 39.3545 144.055 39.2172 144.565 38.9074C145.075 38.5977 145.471 38.132 145.694 37.5798L148.083 37.5798ZM139.579 33.9319H145.706C145.729 33.5274 145.667 33.1227 145.526 32.7431C145.384 32.3634 145.165 32.0171 144.883 31.7258C144.601 31.4345 144.261 31.2046 143.885 31.0504C143.51 30.8962 143.106 30.8211 142.7 30.8298C142.29 30.8273 141.884 30.9058 141.505 31.0607C141.126 31.2156 140.781 31.4439 140.491 31.7323C140.201 32.0207 139.971 32.3636 139.814 32.7411C139.658 33.1186 139.577 33.5233 139.579 33.9319V33.9319Z" fill="white"/>
<path d="M51.2087 11.7869C51.7362 11.7491 52.2654 11.8286 52.7584 12.0195C53.2513 12.2104 53.6956 12.5081 54.0592 12.891C54.4228 13.2739 54.6967 13.7325 54.861 14.2337C55.0254 14.7349 55.0761 15.2662 55.0096 15.7894C55.0096 18.3628 53.6149 19.8421 51.2087 19.8421H48.2909V11.7869H51.2087ZM49.5455 18.7029H51.0686C51.4455 18.7254 51.8226 18.6637 52.1727 18.5225C52.5227 18.3813 52.8367 18.164 53.0919 17.8865C53.347 17.609 53.537 17.2782 53.6478 16.9183C53.7586 16.5583 53.7876 16.1783 53.7325 15.8058C53.7836 15.4348 53.7517 15.0571 53.6392 14.6998C53.5266 14.3425 53.3362 14.0144 53.0816 13.7391C52.827 13.4638 52.5145 13.2481 52.1665 13.1074C51.8185 12.9666 51.4435 12.9044 51.0686 12.9252H49.5455V18.7029Z" fill="white"/>
<path d="M56.4269 16.7999C56.3885 16.4004 56.4344 15.9973 56.5614 15.6165C56.6885 15.2357 56.8939 14.8856 57.1646 14.5886C57.4353 14.2917 57.7652 14.0544 58.1332 13.892C58.5013 13.7296 58.8992 13.6458 59.3017 13.6458C59.7041 13.6458 60.1021 13.7296 60.4702 13.892C60.8382 14.0544 61.1681 14.2917 61.4388 14.5886C61.7095 14.8856 61.9149 15.2357 62.042 15.6165C62.169 15.9973 62.2148 16.4004 62.1765 16.7999C62.2156 17.1998 62.1703 17.6034 62.0436 17.9848C61.9169 18.3662 61.7115 18.717 61.4408 19.0145C61.17 19.3121 60.8399 19.5499 60.4715 19.7126C60.1031 19.8753 59.7046 19.9594 59.3017 19.9594C58.8988 19.9594 58.5003 19.8753 58.1319 19.7126C57.7635 19.5499 57.4333 19.3121 57.1626 19.0145C56.8918 18.717 56.6865 18.3662 56.5598 17.9848C56.4331 17.6034 56.3878 17.1998 56.4269 16.7999ZM60.939 16.7999C60.939 15.4822 60.3454 14.7116 59.3037 14.7116C58.2579 14.7116 57.6696 15.4822 57.6696 16.7999C57.6696 18.1281 58.258 18.8928 59.3037 18.8928C60.3455 18.8928 60.9391 18.1228 60.9391 16.7999H60.939Z" fill="white"/>
<path d="M69.8194 19.842H68.5713L67.3114 15.3648H67.2162L65.9616 19.842H64.7255L63.0451 13.763H64.2654L65.3574 18.4016H65.4473L66.7006 13.763H67.8548L69.1081 18.4016H69.2033L70.29 13.763H71.4931L69.8194 19.842Z" fill="white"/>
<path d="M72.9064 13.763H74.0645V14.7287H74.1544C74.3069 14.3819 74.5641 14.0911 74.8902 13.897C75.2163 13.7029 75.595 13.615 75.9735 13.6457C76.2702 13.6235 76.568 13.6681 76.845 13.7762C77.122 13.8843 77.371 14.0532 77.5736 14.2703C77.7763 14.4875 77.9273 14.7473 78.0156 15.0306C78.1039 15.3138 78.1271 15.6132 78.0835 15.9067V19.8419H76.8805V16.2079C76.8805 15.231 76.4548 14.7452 75.565 14.7452C75.3636 14.7359 75.1626 14.77 74.9757 14.8454C74.7888 14.9208 74.6205 15.0356 74.4822 15.1819C74.3439 15.3282 74.2391 15.5026 74.1747 15.6931C74.1104 15.8837 74.0881 16.0858 74.1094 16.2857V19.842H72.9064L72.9064 13.763Z" fill="white"/>
<path d="M80.0005 11.39H81.2036V19.842H80.0005V11.39Z" fill="white"/>
<path d="M82.876 16.7999C82.8377 16.4003 82.8836 15.9972 83.0107 15.6164C83.1377 15.2356 83.3432 14.8855 83.6139 14.5885C83.8846 14.2915 84.2146 14.0543 84.5826 13.8919C84.9507 13.7295 85.3487 13.6456 85.7512 13.6456C86.1536 13.6456 86.5517 13.7295 86.9197 13.8919C87.2878 14.0543 87.6177 14.2915 87.8884 14.5885C88.1591 14.8855 88.3646 15.2356 88.4917 15.6164C88.6188 15.9972 88.6646 16.4003 88.6263 16.7999C88.6653 17.1998 88.62 17.6034 88.4933 17.9848C88.3665 18.3662 88.1612 18.717 87.8904 19.0145C87.6196 19.3121 87.2894 19.5498 86.921 19.7125C86.5526 19.8753 86.1541 19.9593 85.7512 19.9593C85.3482 19.9593 84.9498 19.8753 84.5814 19.7125C84.2129 19.5498 83.8827 19.3121 83.612 19.0145C83.3412 18.717 83.1358 18.3662 83.0091 17.9848C82.8823 17.6034 82.837 17.1998 82.876 16.7999ZM87.3882 16.7999C87.3882 15.4822 86.7946 14.7116 85.7528 14.7116C84.7071 14.7116 84.1188 15.4822 84.1188 16.7999C84.1188 18.1281 84.7071 18.8928 85.7528 18.8928C86.7946 18.8927 87.3882 18.1228 87.3882 16.7999H87.3882Z" fill="white"/>
<path d="M89.8929 18.1228C89.8929 17.0286 90.7099 16.3978 92.1602 16.3081L93.8114 16.2132V15.6885C93.8114 15.0464 93.3857 14.6839 92.5634 14.6839C91.8918 14.6839 91.4265 14.9298 91.2929 15.3596H90.1282C90.2511 14.3154 91.2361 13.6457 92.6189 13.6457C94.1472 13.6457 95.0092 14.4044 95.0092 15.6885V19.842H93.8511V18.9877H93.7559C93.5627 19.2941 93.2914 19.5439 92.9697 19.7116C92.648 19.8793 92.2875 19.9589 91.9249 19.9421C91.6689 19.9687 91.4103 19.9415 91.1656 19.8622C90.9209 19.783 90.6955 19.6535 90.5041 19.4821C90.3126 19.3106 90.1593 19.1011 90.0541 18.867C89.9488 18.6329 89.8939 18.3794 89.8929 18.1228ZM93.8114 17.6034V17.0952L92.3228 17.1901C91.4833 17.2461 91.1025 17.5309 91.1025 18.0668C91.1025 18.6139 91.5785 18.9323 92.2329 18.9323C92.4247 18.9516 92.6184 18.9323 92.8025 18.8755C92.9866 18.8187 93.1574 18.7255 93.3047 18.6015C93.452 18.4776 93.5727 18.3253 93.6598 18.1538C93.7468 17.9823 93.7984 17.7952 93.8114 17.6034Z" fill="white"/>
<path d="M96.5904 16.7999C96.5904 14.879 97.5806 13.6622 99.1208 13.6622C99.5018 13.6447 99.8799 13.7357 100.211 13.9245C100.542 14.1134 100.812 14.3923 100.99 14.7287H101.08V11.39H102.283V19.842H101.13V18.8815H101.035C100.843 19.2156 100.564 19.4911 100.226 19.678C99.8889 19.865 99.5066 19.9563 99.1208 19.9421C97.57 19.9422 96.5904 18.7253 96.5904 16.7999ZM97.8332 16.7999C97.8332 18.0892 98.4427 18.8651 99.462 18.8651C100.476 18.8651 101.103 18.078 101.103 16.8051C101.103 15.5382 100.469 14.7399 99.462 14.7399C98.4492 14.7399 97.8331 15.521 97.8331 16.7999H97.8332Z" fill="white"/>
<path d="M107.261 16.7999C107.222 16.4004 107.268 15.9973 107.395 15.6165C107.522 15.2357 107.728 14.8856 107.998 14.5886C108.269 14.2917 108.599 14.0544 108.967 13.892C109.335 13.7296 109.733 13.6458 110.136 13.6458C110.538 13.6458 110.936 13.7296 111.304 13.892C111.672 14.0544 112.002 14.2917 112.273 14.5886C112.543 14.8856 112.749 15.2357 112.876 15.6165C113.003 15.9973 113.049 16.4004 113.01 16.7999C113.049 17.1998 113.004 17.6034 112.877 17.9848C112.751 18.3662 112.545 18.717 112.275 19.0145C112.004 19.3121 111.674 19.5499 111.305 19.7126C110.937 19.8753 110.539 19.9594 110.136 19.9594C109.733 19.9594 109.334 19.8753 108.966 19.7126C108.597 19.5499 108.267 19.3121 107.996 19.0145C107.726 18.717 107.52 18.3662 107.394 17.9848C107.267 17.6034 107.222 17.1998 107.261 16.7999ZM111.773 16.7999C111.773 15.4822 111.179 14.7116 110.138 14.7116C109.092 14.7116 108.504 15.4822 108.504 16.7999C108.504 18.1281 109.092 18.8928 110.138 18.8928C111.179 18.8928 111.773 18.1228 111.773 16.7999Z" fill="white"/>
<path d="M114.625 13.763H115.783V14.7287H115.873C116.025 14.3819 116.282 14.0911 116.608 13.897C116.935 13.7029 117.313 13.615 117.692 13.6457C117.988 13.6235 118.286 13.6681 118.563 13.7762C118.84 13.8843 119.089 14.0532 119.292 14.2703C119.495 14.4875 119.646 14.7473 119.734 15.0306C119.822 15.3138 119.845 15.6132 119.802 15.9067V19.8419H118.599V16.2079C118.599 15.231 118.173 14.7452 117.283 14.7452C117.082 14.7359 116.881 14.77 116.694 14.8454C116.507 14.9208 116.339 15.0356 116.2 15.1819C116.062 15.3282 115.957 15.5026 115.893 15.6931C115.829 15.8837 115.806 16.0858 115.828 16.2857V19.842H114.625V13.763Z" fill="white"/>
<path d="M126.6 12.2495V13.7907H127.921V14.8012H126.6V17.927C126.6 18.5638 126.863 18.8426 127.462 18.8426C127.615 18.8421 127.768 18.8329 127.921 18.8149V19.8142C127.705 19.8528 127.486 19.8733 127.266 19.8756C125.928 19.8756 125.395 19.4062 125.395 18.2342V14.8011H124.428V13.7906H125.395V12.2495H126.6Z" fill="white"/>
<path d="M129.564 11.39H130.756V14.7399H130.852C131.012 14.3898 131.276 14.0974 131.608 13.9026C131.941 13.7077 132.326 13.6198 132.71 13.6509C133.005 13.6349 133.3 13.6841 133.574 13.7948C133.848 13.9056 134.094 14.0752 134.295 14.2917C134.495 14.5081 134.645 14.7661 134.734 15.047C134.823 15.328 134.849 15.6251 134.81 15.9172V19.842H133.605V16.2132C133.605 15.2422 133.152 14.7504 132.302 14.7504C132.095 14.7335 131.887 14.7619 131.693 14.8335C131.498 14.9051 131.321 15.0183 131.175 15.1651C131.029 15.3119 130.917 15.4888 130.846 15.6833C130.776 15.8779 130.749 16.0855 130.767 16.2916V19.8419H129.564L129.564 11.39Z" fill="white"/>
<path d="M141.825 18.2006C141.661 18.7562 141.307 19.2368 140.824 19.5583C140.341 19.8798 139.76 20.0217 139.183 19.9593C138.782 19.9699 138.382 19.8931 138.014 19.7345C137.645 19.5758 137.315 19.339 137.047 19.0405C136.779 18.7419 136.579 18.3888 136.462 18.0057C136.345 17.6225 136.312 17.2185 136.367 16.8216C136.314 16.4235 136.347 16.0186 136.464 15.6343C136.581 15.25 136.779 14.8952 137.046 14.5941C137.312 14.2929 137.641 14.0524 138.009 13.8888C138.376 13.7252 138.775 13.6422 139.178 13.6457C140.874 13.6457 141.897 14.8013 141.897 16.7102V17.1288H137.593V17.196C137.574 17.4191 137.602 17.6436 137.675 17.8553C137.749 18.0669 137.865 18.2609 138.018 18.4248C138.171 18.5888 138.357 18.7191 138.563 18.8074C138.769 18.8957 138.992 18.94 139.216 18.9375C139.504 18.972 139.796 18.9203 140.054 18.7891C140.312 18.6578 140.525 18.453 140.667 18.2006L141.825 18.2006ZM137.593 16.2415H140.672C140.687 16.0375 140.659 15.8326 140.59 15.6399C140.521 15.4472 140.413 15.2711 140.271 15.1228C140.13 14.9745 139.959 14.8573 139.77 14.7787C139.58 14.7002 139.376 14.6621 139.171 14.6667C138.963 14.6641 138.757 14.7031 138.564 14.7813C138.371 14.8595 138.196 14.9755 138.049 15.1222C137.902 15.269 137.786 15.4436 137.707 15.6359C137.629 15.8281 137.59 16.034 137.593 16.2415H137.593Z" fill="white"/>
</g>
<defs>
<clipPath id="clip0_1_11">
<rect width="162" height="54" fill="white"/>
</clipPath>
</defs>
</svg>
