<svg width="182" height="54" viewBox="0 0 182 54" fill="none" xmlns="http://www.w3.org/2000/svg">
<g clip-path="url(#clip0_1_46)">
<path d="M175.259 54H6.74074C2.96593 54 0 51.03 0 47.25V6.75C0 2.97 2.96593 0 6.74074 0H175.259C179.034 0 182 2.97 182 6.75V47.25C182 51.03 179.034 54 175.259 54Z" fill="black"/>
<path d="M175.259 1.08C178.36 1.08 180.921 3.645 180.921 6.75V47.25C180.921 50.355 178.36 52.92 175.259 52.92H6.74074C3.64 52.92 1.07852 50.355 1.07852 47.25V6.75C1.07852 3.645 3.64 1.08 6.74074 1.08H175.259ZM175.259 0H6.74074C2.96593 0 0 3.105 0 6.75V47.25C0 51.03 2.96593 54 6.74074 54H175.259C179.034 54 182 51.03 182 47.25V6.75C182 3.105 179.034 0 175.259 0Z" fill="#A6A6A6"/>
<path d="M63.9022 13.77C63.9022 14.85 63.6326 15.795 62.9585 16.47C62.1496 17.28 61.2059 17.685 59.9926 17.685C58.7792 17.685 57.8355 17.28 57.0267 16.47C56.2178 15.66 55.8133 14.715 55.8133 13.5C55.8133 12.285 56.2178 11.34 57.0267 10.53C57.8355 9.72 58.7792 9.315 59.9926 9.315C60.5318 9.315 61.2059 9.45 61.6104 9.585C62.1496 9.855 62.5541 10.125 62.9585 10.53L62.1496 11.34C61.88 11.07 61.6104 10.8 61.2059 10.665C60.8015 10.53 60.397 10.395 59.9926 10.395C59.0489 10.395 58.3748 10.665 57.7007 11.34C57.1615 12.015 56.757 12.69 56.757 13.635C56.757 14.58 57.0267 15.39 57.7007 15.93C58.3748 16.605 59.0489 16.875 59.9926 16.875C60.8015 16.875 61.4755 16.605 62.0148 16.2C62.5541 15.795 62.8237 15.12 62.9585 14.31H59.9926V13.23H63.9022C63.9022 13.365 63.9022 13.635 63.9022 13.77Z" fill="white" stroke="white" stroke-width="0.2" stroke-miterlimit="10"/>
<path d="M70.1037 9.45001V10.395H66.4637V12.96H69.8341V13.905H66.4637V16.47H70.1037V17.55H65.3852V9.45001H70.1037Z" fill="white" stroke="white" stroke-width="0.2" stroke-miterlimit="10"/>
<path d="M74.5526 10.395V17.55H73.4741V10.395H71.1822V9.45001H76.8444V10.395H74.5526Z" fill="white" stroke="white" stroke-width="0.2" stroke-miterlimit="10"/>
<path d="M81.8326 17.55H80.7541V9.45001H81.8326V17.55Z" fill="white" stroke="white" stroke-width="0.2" stroke-miterlimit="10"/>
<path d="M86.4163 10.395V17.55H85.3378V10.395H83.0459V9.45001H88.5733V10.395H86.4163Z" fill="white" stroke="white" stroke-width="0.2" stroke-miterlimit="10"/>
<path d="M100.437 13.5C100.437 14.715 100.033 15.66 99.2237 16.47C98.4148 17.28 97.4711 17.685 96.2578 17.685C95.0444 17.685 94.1007 17.28 93.2918 16.47C92.483 15.66 92.0785 14.715 92.0785 13.5C92.0785 12.285 92.483 11.34 93.2918 10.53C94.1007 9.72 95.0444 9.315 96.2578 9.315C97.4711 9.315 98.4148 9.72 99.2237 10.53C100.033 11.34 100.437 12.285 100.437 13.5ZM93.157 13.5C93.157 14.445 93.4267 15.255 94.1007 15.795C94.64 16.47 95.4489 16.74 96.2578 16.74C97.2015 16.74 97.8756 16.47 98.4148 15.795C98.9541 15.255 99.3585 14.445 99.3585 13.5C99.3585 12.555 99.0889 11.745 98.4148 11.205C97.8756 10.53 97.0667 10.26 96.2578 10.26C95.3141 10.26 94.64 10.53 94.1007 11.205C93.4267 11.745 93.157 12.555 93.157 13.5Z" fill="white" stroke="white" stroke-width="0.2" stroke-miterlimit="10"/>
<path d="M102.864 17.55H101.785V9.45001H102.999L106.908 15.795V14.175V9.45001H107.987V17.55H106.908L102.729 10.935V12.555V17.55H102.864Z" fill="white" stroke="white" stroke-width="0.2" stroke-miterlimit="10"/>
<path d="M91.8089 29.43C88.5733 29.43 86.0118 31.86 86.0118 35.235C86.0118 38.475 88.5733 41.04 91.8089 41.04C95.0444 41.04 97.6059 38.61 97.6059 35.235C97.6059 31.725 95.0444 29.43 91.8089 29.43ZM91.8089 38.61C90.0563 38.61 88.5733 37.125 88.5733 35.1C88.5733 33.075 90.0563 31.59 91.8089 31.59C93.5615 31.59 95.0444 32.94 95.0444 35.1C95.0444 37.125 93.5615 38.61 91.8089 38.61ZM79.2711 29.43C76.0355 29.43 73.4741 31.86 73.4741 35.235C73.4741 38.475 76.0355 41.04 79.2711 41.04C82.5067 41.04 85.0681 38.61 85.0681 35.235C85.0681 31.725 82.5067 29.43 79.2711 29.43ZM79.2711 38.61C77.5185 38.61 76.0355 37.125 76.0355 35.1C76.0355 33.075 77.5185 31.59 79.2711 31.59C81.0237 31.59 82.5067 32.94 82.5067 35.1C82.5067 37.125 81.0237 38.61 79.2711 38.61ZM64.3067 31.185V33.615H70.1037C69.9689 34.965 69.4296 36.045 68.7555 36.72C67.9467 37.53 66.5985 38.475 64.3067 38.475C60.6667 38.475 57.9704 35.64 57.9704 31.995C57.9704 28.35 60.8015 25.515 64.3067 25.515C66.1941 25.515 67.677 26.325 68.7555 27.27L70.5081 25.515C69.0252 24.165 67.1378 23.085 64.4415 23.085C59.5881 23.085 55.4089 27.135 55.4089 31.995C55.4089 36.855 59.5881 40.905 64.4415 40.905C67.1378 40.905 69.0252 40.095 70.643 38.34C72.2607 36.72 72.8 34.425 72.8 32.67C72.8 32.13 72.8 31.59 72.6652 31.185H64.3067ZM125.513 33.075C124.973 31.725 123.625 29.43 120.659 29.43C117.693 29.43 115.267 31.725 115.267 35.235C115.267 38.475 117.693 41.04 120.929 41.04C123.49 41.04 125.108 39.42 125.647 38.475L123.76 37.125C123.086 38.07 122.277 38.745 120.929 38.745C119.581 38.745 118.772 38.205 118.098 36.99L125.782 33.75L125.513 33.075ZM117.693 34.965C117.693 32.805 119.446 31.59 120.659 31.59C121.603 31.59 122.547 32.13 122.816 32.805L117.693 34.965ZM111.357 40.5H113.919V23.625H111.357V40.5ZM107.313 30.645C106.639 29.97 105.56 29.295 104.212 29.295C101.381 29.295 98.6844 31.86 98.6844 35.1C98.6844 38.34 101.246 40.77 104.212 40.77C105.56 40.77 106.639 40.095 107.178 39.42H107.313V40.23C107.313 42.39 106.099 43.605 104.212 43.605C102.729 43.605 101.65 42.525 101.381 41.58L99.2237 42.525C99.8978 44.01 101.516 45.9 104.347 45.9C107.313 45.9 109.739 44.145 109.739 39.96V29.7H107.313V30.645ZM104.347 38.61C102.594 38.61 101.111 37.125 101.111 35.1C101.111 33.075 102.594 31.59 104.347 31.59C106.099 31.59 107.447 33.075 107.447 35.1C107.447 37.125 106.099 38.61 104.347 38.61ZM137.241 23.625H131.175V40.5H133.736V34.155H137.241C140.073 34.155 142.769 32.13 142.769 28.89C142.769 25.65 140.073 23.625 137.241 23.625ZM137.376 31.725H133.736V25.92H137.376C139.264 25.92 140.342 27.54 140.342 28.755C140.207 30.24 139.129 31.725 137.376 31.725ZM152.88 29.295C150.993 29.295 149.105 30.105 148.431 31.86L150.723 32.805C151.262 31.86 152.071 31.59 153.015 31.59C154.363 31.59 155.576 32.4 155.711 33.75V33.885C155.307 33.615 154.228 33.21 153.15 33.21C150.723 33.21 148.296 34.56 148.296 36.99C148.296 39.285 150.319 40.77 152.476 40.77C154.228 40.77 155.037 39.96 155.711 39.15H155.846V40.5H158.273V34.02C158.003 31.05 155.711 29.295 152.88 29.295ZM152.61 38.61C151.801 38.61 150.588 38.205 150.588 37.125C150.588 35.775 152.071 35.37 153.284 35.37C154.363 35.37 154.902 35.64 155.576 35.91C155.307 37.53 153.958 38.61 152.61 38.61ZM166.766 29.7L163.935 36.99H163.8L160.834 29.7H158.138L162.587 39.96L160.025 45.63H162.587L169.462 29.7H166.766ZM144.117 40.5H146.679V23.625H144.117V40.5Z" fill="white"/>
<path d="M27.9067 26.1899L13.6163 41.4449C14.0207 43.0649 15.5037 44.2799 17.3911 44.2799C18.0652 44.2799 18.7393 44.1449 19.4133 43.7399L35.5911 34.4249L27.9067 26.1899Z" fill="#EA4335"/>
<path d="M42.4667 23.625L35.4563 19.575L27.637 26.595L35.4563 34.425L42.3318 30.375C43.5452 29.7 44.3541 28.485 44.3541 27C44.4889 25.515 43.68 24.3 42.4667 23.625Z" fill="#FBBC04"/>
<path d="M13.6163 12.555C13.4815 12.825 13.4815 13.23 13.4815 13.5V40.5C13.4815 40.905 13.4815 41.175 13.6163 41.445L28.4459 26.595L13.6163 12.555Z" fill="#4285F4"/>
<path d="M28.0415 27L35.4563 19.575L19.2785 10.26C18.7393 9.85497 18.0652 9.71997 17.2563 9.71997C15.5037 9.71997 13.8859 10.935 13.4815 12.555L28.0415 27Z" fill="#34A853"/>
</g>
<defs>
<clipPath id="clip0_1_46">
<rect width="182" height="54" fill="white"/>
</clipPath>
</defs>
</svg>
